<svg xmlns="http://www.w3.org/2000/svg" viewBox="0 0 24 24" fill="#DC2626">
  <path d="M12 2C6.48 2 2 6.48 2 12s4.48 10 10 10 10-4.48 10-10S17.52 2 12 2zm2.29 15.29c-.39.39-1.02.39-1.41 0L12 16.41l-1.88 1.88c-.39.39-1.02.39-1.41 0-.39-.39-.39-1.02 0-1.41L10.59 15l-1.88-1.88c-.39-.39-.39-1.02 0-1.41.39-.39 1.02-.39 1.41 0L12 13.59l1.88-1.88c.39-.39 1.02-.39 1.41 0 .39.39.39 1.02 0 1.41L13.41 15l1.88 1.88c.39.38.39 1.02 0 1.41zM16 8c-1.1 0-2 .9-2 2s.9 2 2 2 2-.9 2-2-.9-2-2-2zm-8 0c-1.1 0-2 .9-2 2s.9 2 2 2 2-.9 2-2-.9-2-2-2z" />
  <path d="M9.4,5.2c-1,.6-1.6,1.6-1.6,2.8c0,1.8,1.4,3.2,3.2,3.2s3.2-1.4,3.2-3.2c0-1.2-.6-2.2-1.6-2.8c-.5-.3-1.1-.3-1.6,0c-0.5,0.3-1.1,0.3-1.6,0z" transform="translate(1.5, -1)" fill="#FFF"/>
  <path d="M13,6.5c-0.2,0.2-0.5,0.2-0.7,0c-0.4-0.4-1-0.4-1.4,0c-0.2,0.2-0.5,0.2-0.7,0c-1.1-1.1-1.1-2.9,0-4 C10.9,1.8,11.4,1.5,12,1.5s1.1,0.3,1.5,0.8C14.1,3.6,14.1,5.4,13,6.5z" transform="translate(0, 0.5)" fill="#DC2626" />
</svg>
